<svg width="321" height="75" viewBox="0 0 321 75" fill="none" xmlns="http://www.w3.org/2000/svg">
<path d="M142.344 66V29.6364H158.111C160.881 29.6364 163.207 30.0092 165.089 30.755C166.983 31.5007 168.409 32.5542 169.368 33.9155C170.339 35.2768 170.824 36.8807 170.824 38.7273C170.824 40.0649 170.528 41.2841 169.936 42.3849C169.356 43.4858 168.539 44.4091 167.486 45.1548C166.432 45.8887 165.201 46.3977 163.793 46.6818V47.0369C165.355 47.0961 166.776 47.4927 168.054 48.2266C169.332 48.9486 170.35 49.9489 171.108 51.2273C171.866 52.4938 172.244 53.9853 172.244 55.7017C172.244 57.6903 171.723 59.46 170.682 61.0107C169.652 62.5613 168.184 63.7805 166.278 64.6683C164.373 65.5561 162.1 66 159.46 66H142.344ZM152.216 58.1165H156.832C158.49 58.1165 159.732 57.8087 160.561 57.1932C161.39 56.5658 161.804 55.6425 161.804 54.4233C161.804 53.571 161.609 52.849 161.218 52.2571C160.827 51.6652 160.271 51.2154 159.549 50.9077C158.839 50.5999 157.981 50.446 156.974 50.446H152.216V58.1165ZM152.216 44.3381H156.264C157.128 44.3381 157.892 44.2019 158.555 43.9297C159.218 43.6574 159.732 43.2668 160.099 42.7578C160.478 42.237 160.668 41.6037 160.668 40.858C160.668 39.7334 160.265 38.8752 159.46 38.2834C158.655 37.6797 157.637 37.3778 156.406 37.3778H152.216V44.3381ZM197.262 29.6364H207.134V52.9318C207.134 55.7017 206.471 58.0987 205.146 60.1229C203.832 62.1352 201.997 63.6918 199.641 64.7926C197.286 65.8816 194.551 66.4261 191.438 66.4261C188.301 66.4261 185.555 65.8816 183.2 64.7926C180.844 63.6918 179.009 62.1352 177.695 60.1229C176.393 58.0987 175.742 55.7017 175.742 52.9318V29.6364H185.614V52.0795C185.614 53.2041 185.863 54.2102 186.36 55.098C186.857 55.974 187.544 56.6605 188.42 57.1577C189.308 57.6548 190.314 57.9034 191.438 57.9034C192.575 57.9034 193.581 57.6548 194.457 57.1577C195.333 56.6605 196.019 55.974 196.516 55.098C197.013 54.2102 197.262 53.2041 197.262 52.0795V29.6364ZM225.818 66H211.826V29.6364H225.676C229.416 29.6364 232.648 30.3643 235.37 31.8203C238.105 33.2644 240.212 35.3478 241.691 38.0703C243.183 40.781 243.928 44.0303 243.928 47.8182C243.928 51.6061 243.189 54.8613 241.709 57.5838C240.229 60.2945 238.134 62.3778 235.423 63.8338C232.713 65.2779 229.511 66 225.818 66ZM221.698 57.6193H225.463C227.262 57.6193 228.795 57.3293 230.061 56.7493C231.34 56.1693 232.31 55.169 232.973 53.7486C233.648 52.3281 233.985 50.3513 233.985 47.8182C233.985 45.285 233.642 43.3082 232.955 41.8878C232.281 40.4673 231.286 39.4671 229.972 38.8871C228.67 38.3071 227.072 38.017 225.178 38.017H221.698V57.6193ZM262.488 66H248.496V29.6364H262.346C266.086 29.6364 269.318 30.3643 272.04 31.8203C274.775 33.2644 276.882 35.3478 278.361 38.0703C279.853 40.781 280.598 44.0303 280.598 47.8182C280.598 51.6061 279.859 54.8613 278.379 57.5838C276.899 60.2945 274.804 62.3778 272.093 63.8338C269.383 65.2779 266.181 66 262.488 66ZM258.368 57.6193H262.132C263.932 57.6193 265.465 57.3293 266.731 56.7493C268.01 56.1693 268.98 55.169 269.643 53.7486C270.318 52.3281 270.655 50.3513 270.655 47.8182C270.655 45.285 270.312 43.3082 269.625 41.8878C268.951 40.4673 267.956 39.4671 266.642 38.8871C265.34 38.3071 263.742 38.017 261.848 38.017H258.368V57.6193ZM281.135 29.6364H292.144L299.246 44.4091H299.53L306.633 29.6364H317.641L304.289 54.5653V66H294.488V54.5653L281.135 29.6364Z" fill="#8962A1"/>
<path fill-rule="evenodd" clip-rule="evenodd" d="M95.2706 62.93C96.0469 62.9364 96.7516 62.9423 97.3667 62.9495H104.154C104.079 66.7957 104.743 74.4204 108.001 74.1489C111.259 73.8774 111.444 70.642 111.13 69.0582C111.641 71.0151 112.743 73.294 114.788 72.9045C117.868 72.3179 118.223 66.9728 118.563 61.8354C118.723 59.4262 118.88 57.0626 119.313 55.2569L120.331 53.8994C121.689 51.4559 123.386 51.0713 124.064 51.1844C125.422 51.4484 128.612 51.3445 130.512 48.8174C132.413 46.2903 129.721 45.1191 128.137 44.8494C128.439 43.9821 128.34 41.795 125.535 39.985C123.996 37.1795 126.176 34.2156 127.458 33.0843L123.558 34.4418C123.666 33.645 123.864 32.9284 124.064 32.4056L117.956 36.4781C113.431 39.1026 109.433 45.7978 108.001 48.8174C102.842 49.8129 88.7692 50.1286 84.2442 49.7138C93.068 42.5869 108.046 24.713 97.3667 10.233C86.6877 -4.24707 73.007 1.48462 67.5016 6.16047C61.2571 0.45895 50.7967 2.42733 46.3471 4.12421C40.5023 6.34902 30.4191 14.9843 36.8446 31.7268C40.032 40.032 45.3394 45.8609 50.759 50.0618C46.777 52.6027 35.1477 52.5419 33.1115 50.0618C33.8355 35.6722 22.7793 34.3664 17.1608 35.6862C12.5453 42.2927 5.13177 42.7377 2.00196 42.1344C0.795289 42.6623 -0.305798 44.7363 4.94322 48.8088C10.1922 52.8813 14.2195 51.8632 15.577 50.845C17.0099 51.6369 19.8758 53.6053 19.8758 55.1438C20.8753 58.3423 21.7495 63.5114 22.5171 68.0504C22.9078 70.3608 23.2709 72.508 23.6089 74.1489C25.3677 75.0833 29.0582 75.4324 29.8696 69.4449C29.4775 72.5442 29.7745 75.2759 32.2065 74.1489C35.917 72.4294 36.3921 67.7071 36.1659 65.5609C44.8787 66.4861 58.5478 66.3115 69.1985 60.9132C74.1105 62.7552 87.9094 62.8692 95.2706 62.93ZM53.3771 17.2901C41.8383 26.5664 58.0529 38.8537 68.3096 44.8494C73.6265 43.1525 86.7491 30.6389 86.1673 22.2243C85.5168 12.8156 74.0574 14.9144 71.7034 19.6224C69.8718 23.2857 64.9385 23.1519 63.219 19.6224C61.4995 16.0929 56.4315 14.8346 53.3771 17.2901Z" fill="#FF9A5C"/>
<path d="M69.1985 60.9132C65.5785 59.5557 58.9963 56.4467 50.759 50.0618M69.1985 60.9132C58.5478 66.3115 44.8787 66.4861 36.1659 65.5609M69.1985 60.9132C74.1105 62.7552 87.9094 62.8692 95.2706 62.93C96.0469 62.9364 96.7516 62.9423 97.3667 62.9495H104.154M33.1115 50.0618C35.1477 52.5419 46.777 52.6027 50.759 50.0618M33.1115 50.0618C33.8355 35.6722 22.7793 34.3664 17.1608 35.6862C12.5453 42.2927 5.13177 42.7377 2.00196 42.1344C0.795289 42.6623 -0.305798 44.7363 4.94322 48.8088C10.1922 52.8813 14.2195 51.8632 15.577 50.845C17.0099 51.6369 19.8758 53.6053 19.8758 55.1438C20.8753 58.3423 21.7495 63.5114 22.5171 68.0504C22.9078 70.3608 23.2709 72.508 23.6089 74.1489C25.3677 75.0833 29.0582 75.4324 29.8696 69.4449M33.1115 50.0618C30.6604 53.0784 25.3284 55.2569 23.6089 41.2294M50.759 50.0618C45.3394 45.8609 40.032 40.032 36.8446 31.7268C30.4191 14.9843 40.5023 6.34902 46.3471 4.12421C50.7967 2.42733 61.2571 0.45895 67.5016 6.16047C73.007 1.48462 86.6877 -4.24707 97.3667 10.233C108.046 24.713 93.068 42.5869 84.2442 49.7138C88.7692 50.1286 102.842 49.8129 108.001 48.8174C109.433 45.7978 113.431 39.1026 117.956 36.4781L124.064 32.4056C123.864 32.9284 123.666 33.645 123.558 34.4418M36.1659 65.5609C34.0696 65.3382 32.2603 65.052 30.849 64.7595C30.4845 66.0413 30.1016 67.7026 29.8904 69.2845M36.1659 65.5609C36.3921 67.7071 35.917 72.4294 32.2065 74.1489C29.7745 75.2759 29.4775 72.5442 29.8696 69.4449M29.8904 69.2845C29.8837 69.3385 29.8768 69.3919 29.8696 69.4449M29.8904 69.2845C29.8833 69.3381 29.8763 69.3915 29.8696 69.4449M125.535 39.985C128.34 41.795 128.439 43.9821 128.137 44.8494C129.721 45.1191 132.413 46.2903 130.512 48.8174C128.612 51.3445 125.422 51.4484 124.064 51.1844C123.386 51.0713 121.689 51.4559 120.331 53.8994L119.313 55.2569C118.88 57.0626 118.723 59.4262 118.563 61.8354C118.223 66.9728 117.868 72.3179 114.788 72.9045C112.743 73.294 111.641 71.0151 111.13 69.0582M125.535 39.985C123.557 38.709 123.3 36.346 123.558 34.4418M125.535 39.985C123.996 37.1795 126.176 34.2156 127.458 33.0843L123.558 34.4418M104.154 62.9495H110.942C110.69 64.5401 110.589 66.985 111.13 69.0582M104.154 62.9495C104.079 66.7957 104.743 74.4204 108.001 74.1489C111.259 73.8774 111.444 70.642 111.13 69.0582M68.3096 44.8494C58.0529 38.8537 41.8383 26.5664 53.3771 17.2901C56.4315 14.8346 61.4995 16.0929 63.219 19.6224C64.9385 23.1519 69.8718 23.2857 71.7034 19.6224C74.0574 14.9144 85.5168 12.8156 86.1673 22.2243C86.7491 30.6389 73.6265 43.1525 68.3096 44.8494Z" stroke="black" stroke-width="0.226251"/>
<ellipse cx="17.4032" cy="40.5939" rx="0.791878" ry="0.905004" fill="black"/>
<circle cx="131.094" cy="46.9289" r="0.905004" fill="black"/>
<ellipse cx="2.24438" cy="43.5352" rx="1.24438" ry="1.35751" fill="black"/>
<path d="M124.08 43.4221C124.533 43.045 125.596 42.5171 126.229 43.4221" stroke="black" stroke-width="0.226251"/>
<path d="M15.479 47.0542C15.4857 46.9921 15.4408 46.9363 15.3787 46.9296C15.3165 46.9229 15.2607 46.9678 15.254 47.0299L15.479 47.0542ZM10.6123 51.2277C11.3465 51.247 12.4668 51.0623 13.4526 50.444C14.4432 49.8227 15.294 48.7654 15.479 47.0542L15.254 47.0299C15.077 48.6672 14.2686 49.6651 13.3324 50.2523C12.3912 50.8426 11.3169 51.0199 10.6182 51.0015L10.6123 51.2277Z" fill="black"/>
<path d="M124.945 48.1508C124.927 48.0911 124.961 48.0278 125.02 48.0095C125.08 47.9912 125.143 48.0247 125.162 48.0845L124.945 48.1508ZM128.784 49.9233C128.267 50.0172 127.458 50.0434 126.704 49.8149C125.947 49.5854 125.235 49.0945 124.945 48.1508L125.162 48.0845C125.423 48.9358 126.062 49.3837 126.77 49.5984C127.482 49.814 128.253 49.7899 128.743 49.7007L128.784 49.9233Z" fill="black"/>
</svg>
