<svg width="916" height="770" viewBox="0 0 916 770" fill="none" xmlns="http://www.w3.org/2000/svg">
<path fill-rule="evenodd" clip-rule="evenodd" d="M654.443 430.272C659.824 430.316 664.708 430.357 668.972 430.407H716.02C715.498 457.067 720.098 509.918 742.681 508.036C765.264 506.154 766.552 483.728 764.374 472.75C767.913 486.314 775.552 502.111 789.729 499.411C811.082 495.345 813.537 458.295 815.898 422.685C817.005 405.985 818.091 389.602 821.095 377.085L826.877 363.774C836.286 346.837 849.324 348.072 854.029 348.856C863.438 350.686 889.682 353.233 896.641 332.449C903.949 310.621 890.661 313.278 882.257 304.945C884.348 298.933 883.669 283.773 864.222 271.227C853.558 251.78 868.666 231.236 877.553 223.395L850.518 232.804C851.266 227.281 852.641 217.609 854.029 213.985L811.685 246.919C780.32 265.111 752.614 311.519 742.681 332.449C706.925 339.35 609.378 341.538 578.012 338.663C639.175 289.262 742.995 165.369 668.972 64.9991C594.95 -35.3704 500.122 4.35918 461.96 36.7702C418.676 -2.75033 346.169 10.8936 315.327 22.6557C274.813 38.077 204.92 97.9328 249.459 213.985C271.553 271.553 308.342 311.956 345.908 341.075C318.306 358.687 237.697 358.266 223.583 341.075C228.601 241.333 151.965 232.282 113.019 241.43C81.0267 287.223 29.6396 290.308 7.94516 286.126C-0.418964 289.785 -8.05123 304.161 28.3327 332.39C64.7166 360.619 92.6319 353.561 102.042 346.504C111.974 351.993 131.839 365.637 131.839 376.301C138.767 398.472 144.826 434.302 150.147 465.764C152.856 481.779 155.372 496.662 157.715 508.036C169.906 514.513 195.487 516.933 201.111 475.43C198.394 496.913 200.452 515.848 217.31 508.036C243.029 496.117 246.323 463.384 244.754 448.508C305.148 454.921 399.897 453.711 473.722 416.292C503.303 430.407 603.418 429.85 654.443 430.272ZM364.055 113.916C284.073 178.215 396.466 263.386 467.561 304.945C504.416 293.183 595.376 206.444 591.343 148.118C586.834 82.9006 507.402 97.4488 491.085 130.082C478.389 155.475 444.194 154.547 432.275 130.082C420.356 105.617 385.227 96.8953 364.055 113.916Z" fill="#FF9A5C"/>
<path d="M473.722 416.292C448.63 406.883 403.005 385.332 345.908 341.075M473.722 416.292C399.897 453.711 305.148 454.921 244.754 448.508M473.722 416.292C503.303 430.407 603.418 429.85 654.443 430.272C659.824 430.316 664.708 430.357 668.972 430.407H716.02M223.583 341.075C237.697 358.266 318.306 358.687 345.908 341.075M223.583 341.075C228.601 241.333 151.965 232.282 113.019 241.43C81.0267 287.223 29.6396 290.308 7.94516 286.126C-0.418964 289.785 -8.05123 304.161 28.3327 332.39C64.7166 360.619 92.6319 353.561 102.042 346.504C111.974 351.993 131.839 365.637 131.839 376.301C138.767 398.472 144.826 434.302 150.147 465.764C152.856 481.779 155.372 496.662 157.715 508.036C169.906 514.513 195.487 516.933 201.111 475.43M223.583 341.075C206.593 361.985 169.634 377.085 157.715 279.852M345.908 341.075C308.342 311.956 271.553 271.553 249.459 213.985C204.92 97.9328 274.813 38.077 315.327 22.6557C346.169 10.8936 418.676 -2.75033 461.96 36.7702C500.122 4.35918 594.95 -35.3704 668.972 64.9991C742.995 165.369 639.175 289.262 578.012 338.663C609.378 341.538 706.925 339.35 742.681 332.449C752.614 311.519 780.32 265.111 811.685 246.919L854.029 213.985C852.641 217.609 851.266 227.281 850.518 232.804M244.754 448.508C230.224 446.965 217.683 444.98 207.9 442.953C205.374 451.838 202.72 463.354 201.256 474.318M244.754 448.508C246.323 463.384 243.029 496.117 217.31 508.036C200.452 515.848 198.394 496.913 201.111 475.43M201.256 474.318C201.209 474.692 201.161 475.063 201.111 475.43M201.256 474.318C201.206 474.69 201.158 475.06 201.111 475.43M864.222 271.227C883.669 283.773 884.348 298.933 882.257 304.945C890.661 313.278 903.949 310.621 896.641 332.449C889.682 353.233 863.438 350.686 854.029 348.856C849.324 348.072 836.286 346.837 826.877 363.774L821.095 377.085C818.091 389.602 817.005 405.985 815.898 422.685C813.537 458.295 811.082 495.345 789.729 499.411C775.552 502.111 767.913 486.314 764.374 472.75M864.222 271.227C850.513 262.382 848.729 246.003 850.518 232.804M864.222 271.227C853.558 251.78 868.666 231.236 877.553 223.395L850.518 232.804M716.02 430.407H763.069C761.321 441.433 760.624 458.38 764.374 472.75M716.02 430.407C715.498 457.067 720.098 509.918 742.681 508.036C765.264 506.154 766.552 483.728 764.374 472.75M467.561 304.945C396.466 263.386 284.073 178.215 364.055 113.916C385.227 96.8953 420.356 105.617 432.275 130.082C444.194 154.547 478.389 155.475 491.085 130.082C507.402 97.4488 586.834 82.9006 591.343 148.118C595.376 206.444 504.416 293.183 467.561 304.945Z" stroke="#B64805" stroke-width="1.56827"/>
<path d="M892.202 317.948L869.969 315.819M892.202 317.948L869.847 323.928M892.202 317.948L908.545 295.328M892.202 317.948L911.894 304.306" stroke="#B64805" stroke-width="0.332211"/>
<path d="M870.34 314.9C876.192 312.517 879.514 308.458 881.137 303.662C888.022 283.325 854.758 259.103 842.658 276.84C836.233 286.258 838.726 295.379 845.014 304.89C850.507 313.198 858.927 319.547 870.34 314.9Z" fill="#F48B4A"/>
<ellipse cx="114.699" cy="275.448" rx="5.48896" ry="6.27309" fill="#B64805"/>
<circle cx="898.927" cy="315.565" r="6.27309" fill="#7A3409"/>
<ellipse cx="9.6255" cy="295.835" rx="8.6255" ry="9.40964" fill="#7A3409"/>
<path d="M101.364 320.228C101.411 319.797 101.1 319.41 100.669 319.364C100.239 319.317 99.8518 319.629 99.8053 320.059L101.364 320.228ZM67.6305 349.156C72.7201 349.29 80.4853 348.01 87.3183 343.724C94.1849 339.417 100.082 332.089 101.364 320.228L99.8053 320.059C98.5783 331.409 92.9749 338.325 86.485 342.396C79.9616 346.487 72.5145 347.716 67.6718 347.588L67.6305 349.156Z" fill="#B64805"/>
<path d="M860.136 327.829C860.009 327.415 860.242 326.977 860.656 326.85C861.07 326.723 861.509 326.955 861.635 327.369L860.136 327.829ZM886.741 340.115C883.16 340.766 877.555 340.948 872.329 339.364C867.08 337.773 862.142 334.37 860.136 327.829L861.635 327.369C863.445 333.27 867.875 336.375 872.784 337.863C877.716 339.358 883.06 339.19 886.46 338.572L886.741 340.115Z" fill="#B64805"/>
<path d="M854.14 295.051C857.277 292.437 864.648 288.778 869.039 295.051" stroke="#B64805" stroke-width="1.56827" stroke-linecap="round"/>
<path d="M125.637 680.931V532.781H189.874C201.158 532.781 210.635 534.301 218.303 537.339C226.019 540.377 231.83 544.669 235.736 550.215C239.691 555.761 241.668 562.296 241.668 569.819C241.668 575.268 240.462 580.236 238.051 584.721C235.688 589.206 232.36 592.967 228.068 596.006C223.776 598.996 218.761 601.069 213.022 602.227V603.673C219.388 603.915 225.175 605.53 230.383 608.52C235.592 611.462 239.739 615.537 242.825 620.745C245.912 625.906 247.455 631.982 247.455 638.975C247.455 647.077 245.333 654.286 241.089 660.604C236.894 666.922 230.914 671.889 223.149 675.506C215.385 679.123 206.126 680.931 195.371 680.931H125.637ZM165.857 648.813H184.665C191.417 648.813 196.48 647.559 199.856 645.051C203.232 642.495 204.92 638.734 204.92 633.766C204.92 630.294 204.124 627.352 202.533 624.941C200.941 622.53 198.675 620.697 195.733 619.443C192.839 618.189 189.343 617.562 185.244 617.562H165.857V648.813ZM165.857 592.678H182.35C185.871 592.678 188.981 592.123 191.682 591.014C194.383 589.905 196.48 588.314 197.975 586.24C199.519 584.118 200.29 581.538 200.29 578.5C200.29 573.918 198.651 570.422 195.371 568.01C192.092 565.551 187.944 564.321 182.929 564.321H165.857V592.678Z" fill="#48466D"/>
<path d="M349.38 532.781H389.601V627.69C389.601 638.975 386.9 648.741 381.499 656.987C376.146 665.186 368.671 671.527 359.074 676.012C349.477 680.449 338.337 682.667 325.653 682.667C312.874 682.667 301.685 680.449 292.088 676.012C282.491 671.527 275.016 665.186 269.663 656.987C264.358 648.741 261.706 638.975 261.706 627.69V532.781H301.926V624.218C301.926 628.799 302.939 632.898 304.964 636.515C306.99 640.084 309.787 642.881 313.356 644.907C316.973 646.932 321.072 647.945 325.653 647.945C330.283 647.945 334.382 646.932 337.951 644.907C341.52 642.881 344.317 640.084 346.342 636.515C348.368 632.898 349.38 628.799 349.38 624.218V532.781Z" fill="#48466D"/>
<path d="M465.719 680.931H408.716V532.781H465.141C480.38 532.781 493.546 535.747 504.637 541.679C515.778 547.563 524.362 556.05 530.39 567.142C536.467 578.186 539.505 591.424 539.505 606.856C539.505 622.289 536.491 635.551 530.462 646.643C524.434 657.686 515.898 666.174 504.855 672.106C493.811 677.989 480.766 680.931 465.719 680.931ZM448.937 646.787H464.272C471.603 646.787 477.848 645.606 483.008 643.243C488.217 640.88 492.171 636.805 494.872 631.018C497.621 625.23 498.995 617.177 498.995 606.856C498.995 596.536 497.597 588.482 494.799 582.695C492.051 576.908 488 572.833 482.647 570.47C477.342 568.107 470.831 566.925 463.115 566.925H448.937V646.787Z" fill="#48466D"/>
<path d="M615.117 680.931H558.114V532.781H614.538C629.777 532.781 642.943 535.747 654.035 541.679C665.175 547.563 673.759 556.05 679.788 567.142C685.864 578.186 688.902 591.424 688.902 606.856C688.902 622.289 685.888 635.551 679.86 646.643C673.832 657.686 665.296 666.174 654.252 672.106C643.208 677.989 630.163 680.931 615.117 680.931ZM598.334 646.787H613.67C621 646.787 627.246 645.606 632.406 643.243C637.614 640.88 641.569 636.805 644.269 631.018C647.018 625.23 648.393 617.177 648.393 606.856C648.393 596.536 646.994 588.482 644.197 582.695C641.448 576.908 637.397 572.833 632.044 570.47C626.739 568.107 620.229 566.925 612.513 566.925H598.334V646.787Z" fill="#48466D"/>
<path d="M691.091 532.781H735.941L764.876 592.967H766.034L794.969 532.781H839.819L785.42 634.345V680.931H745.489V634.345L691.091 532.781Z" fill="#48466D"/>
<path d="M283.427 768.142V699.679H305.524C310.382 699.679 314.438 700.615 317.692 702.487C320.968 704.337 323.43 706.855 325.08 710.042C326.751 713.229 327.587 716.817 327.587 720.807C327.587 724.796 326.762 728.395 325.113 731.604C323.464 734.791 321.012 737.321 317.759 739.193C314.505 741.042 310.46 741.967 305.624 741.967H288.241V736.351H305.457C309.045 736.351 312.02 735.683 314.382 734.345C316.745 732.986 318.505 731.136 319.664 728.796C320.845 726.456 321.436 723.793 321.436 720.807C321.436 717.82 320.845 715.157 319.664 712.817C318.505 710.477 316.733 708.638 314.349 707.301C311.986 705.964 308.989 705.295 305.356 705.295H289.678V768.142H283.427Z" fill="#48466D"/>
<path d="M342.262 768.142V699.679H381.976V705.295H348.514V731.069H379.87V736.685H348.514V762.526H382.645V768.142H342.262Z" fill="#48466D"/>
<path d="M394.011 705.295V699.679H443.653V705.295H421.958V768.142H415.706V705.295H394.011Z" fill="#48466D"/>
<path d="M494.9 716.795C494.521 712.984 492.839 709.953 489.852 707.702C486.866 705.451 483.111 704.326 478.587 704.326C475.4 704.326 472.592 704.872 470.163 705.964C467.756 707.056 465.861 708.571 464.48 710.51C463.12 712.427 462.44 714.611 462.44 717.062C462.44 718.868 462.831 720.45 463.611 721.809C464.391 723.169 465.438 724.339 466.753 725.319C468.09 726.278 469.561 727.102 471.166 727.793C472.792 728.484 474.43 729.064 476.08 729.532L483.3 731.604C485.484 732.206 487.668 732.975 489.852 733.911C492.037 734.847 494.031 736.028 495.836 737.454C497.664 738.858 499.124 740.586 500.216 742.636C501.33 744.664 501.887 747.104 501.887 749.957C501.887 753.612 500.94 756.899 499.046 759.818C497.151 762.738 494.432 765.056 490.889 766.772C487.345 768.466 483.1 769.312 478.152 769.312C473.494 769.312 469.449 768.544 466.017 767.006C462.585 765.446 459.889 763.295 457.928 760.554C455.966 757.813 454.863 754.637 454.618 751.027H461.036C461.259 753.723 462.151 756.008 463.711 757.88C465.271 759.752 467.299 761.178 469.795 762.159C472.291 763.117 475.077 763.596 478.152 763.596C481.562 763.596 484.593 763.028 487.245 761.891C489.919 760.732 492.014 759.128 493.53 757.077C495.067 755.005 495.836 752.598 495.836 749.857C495.836 747.539 495.235 745.6 494.031 744.04C492.828 742.458 491.145 741.132 488.983 740.062C486.844 738.992 484.359 738.045 481.529 737.22L473.338 734.813C467.967 733.209 463.8 730.991 460.836 728.161C457.872 725.331 456.39 721.72 456.39 717.33C456.39 713.653 457.37 710.421 459.332 707.635C461.315 704.827 463.989 702.643 467.355 701.083C470.742 699.501 474.542 698.71 478.754 698.71C483.011 698.71 486.777 699.49 490.053 701.05C493.329 702.61 495.925 704.76 497.842 707.502C499.781 710.221 500.817 713.318 500.951 716.795H494.9Z" fill="#48466D"/>
<path d="M516.93 768.142V699.679H523.181V731.069H562.026V699.679H568.278V768.142H562.026V736.685H523.181V768.142H516.93Z" fill="#48466D"/>
<path d="M642.557 733.911C642.557 741.042 641.287 747.249 638.746 752.531C636.206 757.79 632.707 761.869 628.25 764.766C623.815 767.641 618.711 769.078 612.939 769.078C607.167 769.078 602.052 767.641 597.595 764.766C593.16 761.869 589.672 757.79 587.132 752.531C584.613 747.249 583.354 741.042 583.354 733.911C583.354 726.779 584.613 720.584 587.132 715.324C589.672 710.042 593.171 705.964 597.628 703.089C602.086 700.192 607.189 698.743 612.939 698.743C618.711 698.743 623.815 700.192 628.25 703.089C632.707 705.964 636.206 710.042 638.746 715.324C641.287 720.584 642.557 726.779 642.557 733.911ZM636.473 733.911C636.473 727.782 635.448 722.534 633.398 718.166C631.347 713.775 628.55 710.421 625.007 708.103C621.463 705.786 617.441 704.627 612.939 704.627C608.46 704.627 604.448 705.786 600.904 708.103C597.361 710.421 594.553 713.764 592.48 718.132C590.43 722.5 589.405 727.76 589.405 733.911C589.405 740.039 590.43 745.288 592.48 749.656C594.531 754.024 597.328 757.378 600.871 759.718C604.415 762.036 608.437 763.195 612.939 763.195C617.441 763.195 621.463 762.036 625.007 759.718C628.573 757.4 631.381 754.058 633.431 749.689C635.481 745.299 636.496 740.039 636.473 733.911Z" fill="#48466D"/>
<path d="M657.676 768.142V699.679H679.772C684.631 699.679 688.687 700.615 691.941 702.487C695.217 704.337 697.679 706.855 699.329 710.042C701 713.229 701.836 716.817 701.836 720.807C701.836 724.796 701.011 728.395 699.362 731.604C697.713 734.791 695.261 737.321 692.008 739.193C688.754 741.042 684.709 741.967 679.873 741.967H662.49V736.351H679.706C683.294 736.351 686.269 735.683 688.631 734.345C690.994 732.986 692.754 731.136 693.913 728.796C695.094 726.456 695.685 723.793 695.685 720.807C695.685 717.82 695.094 715.157 693.913 712.817C692.754 710.477 690.982 708.638 688.598 707.301C686.235 705.964 683.238 705.295 679.605 705.295H663.927V768.142H657.676Z" fill="#48466D"/>
</svg>
